<svg width="100%" viewBox="0 0 680 490" xmlns="http://www.w3.org/2000/svg">
  <!-- Overhead lamp -->
  <rect x="290" y="0" width="100" height="12" rx="4" fill="#3a3f4b"/>
  <path d="M310 12 L320 38 L360 38 L370 12 Z" fill="#4e5566"/>
  <rect x="312" y="36" width="56" height="10" rx="5" fill="#fffbe0"/>
  <!-- Lamp glow cone -->
  <polygon points="315,46 365,46 430,200 250,200" fill="#fffbe0" opacity="0.04"/>

  <!-- Tool board on wall (left) -->
  <rect x="30" y="30" width="90" height="200" rx="8" fill="#3a3f4b" stroke="#4e5566" stroke-width="2"/>
  <!-- Pegboard holes -->
  <g fill="#2a2e3a">
    <circle cx="50" cy="50" r="3"/>
    <circle cx="70" cy="50" r="3"/>
    <circle cx="90" cy="50" r="3"/>
    <circle cx="110" cy="50" r="3"/>
    <circle cx="50" cy="70" r="3"/>
    <circle cx="70" cy="70" r="3"/>
    <circle cx="90" cy="70" r="3"/>
    <circle cx="110" cy="70" r="3"/>
    <circle cx="50" cy="90" r="3"/>
    <circle cx="70" cy="90" r="3"/>
    <circle cx="90" cy="90" r="3"/>
    <circle cx="110" cy="90" r="3"/>
    <circle cx="50" cy="110" r="3"/>
    <circle cx="70" cy="110" r="3"/>
    <circle cx="90" cy="110" r="3"/>
    <circle cx="110" cy="110" r="3"/>
    <circle cx="50" cy="130" r="3"/>
    <circle cx="70" cy="130" r="3"/>
    <circle cx="90" cy="130" r="3"/>
    <circle cx="110" cy="130" r="3"/>
    <circle cx="50" cy="150" r="3"/>
    <circle cx="70" cy="150" r="3"/>
    <circle cx="90" cy="150" r="3"/>
    <circle cx="110" cy="150" r="3"/>
    <circle cx="50" cy="170" r="3"/>
    <circle cx="70" cy="170" r="3"/>
    <circle cx="90" cy="170" r="3"/>
    <circle cx="110" cy="170" r="3"/>
    <circle cx="50" cy="190" r="3"/>
    <circle cx="70" cy="190" r="3"/>
    <circle cx="90" cy="190" r="3"/>
    <circle cx="110" cy="190" r="3"/>
    <circle cx="50" cy="210" r="3"/>
    <circle cx="70" cy="210" r="3"/>
    <circle cx="90" cy="210" r="3"/>
    <circle cx="110" cy="210" r="3"/>
  </g>
  <!-- Tools hanging -->
  <!-- Wrench -->
  <path d="M58 55 Q55 70 58 85 Q62 90 66 85 Q68 70 65 55 Q62 50 58 55Z" fill="#8a919e" stroke="#5a6170" stroke-width="1"/>
  <circle cx="62" cy="55" r="6" fill="none" stroke="#8a919e" stroke-width="2.5"/>
  <circle cx="62" cy="85" r="5" fill="none" stroke="#8a919e" stroke-width="2.5"/>
  <!-- Screwdriver -->
  <rect x="83" y="52" width="5" height="30" rx="2" fill="#e8b84b"/>
  <rect x="84" y="82" width="3" height="14" rx="1" fill="#8a919e"/>
  <!-- Pliers -->
  <path d="M102 52 L106 70 L100 70 Z" fill="#8a919e"/>
  <path d="M108 52 L112 70 L106 70 Z" fill="#6a7080"/>
  <rect x="102" y="70" width="8" height="16" rx="2" fill="#e8b84b"/>
  <!-- Hammer -->
  <rect x="56" y="115" width="6" height="22" rx="2" fill="#c8884a"/>
  <rect x="50" y="112" width="18" height="9" rx="3" fill="#8a919e"/>
  <!-- Socket set row -->
  <rect x="48" y="155" width="68" height="10" rx="5" fill="#5a6170"/>
  <circle cx="58" cy="160" r="5" fill="#3a3f4b" stroke="#8a919e" stroke-width="1"/>
  <circle cx="72" cy="160" r="5" fill="#3a3f4b" stroke="#8a919e" stroke-width="1"/>
  <circle cx="86" cy="160" r="5" fill="#3a3f4b" stroke="#8a919e" stroke-width="1"/>
  <circle cx="100" cy="160" r="5" fill="#3a3f4b" stroke="#8a919e" stroke-width="1"/>
  <circle cx="114" cy="160" r="5" fill="#3a3f4b" stroke="#8a919e" stroke-width="1"/>
  <!-- WMK yellow stripe on board -->
  <rect x="30" y="222" width="90" height="6" rx="3" fill="#F5C518"/>

  <!-- Toolbox on floor (left) -->
  <rect x="25" y="350" width="100" height="60" rx="6" fill="#e53935"/>
  <rect x="25" y="350" width="100" height="20" rx="6" fill="#ef5350"/>
  <rect x="55" y="344" width="40" height="10" rx="5" fill="#b71c1c"/>
  <rect x="30" y="362" width="90" height="3" rx="1" fill="#b71c1c"/>
  <rect x="30" y="372" width="90" height="3" rx="1" fill="#b71c1c"/>
  <!-- drawer handle -->
  <rect x="60" y="338" width="20" height="8" rx="4" fill="#8a919e"/>
</svg>
